STARTFONT 2.1
FONT -Monotype-Century Gothic-Bold-I-Normal--36-360-75-75-P-189-iso8859-2
SIZE 36 75 75
FONTBOUNDINGBOX 53 47 -7 -8

STARTPROPERTIES 24
FOUNDRY "Monotype"
FAMILY_NAME "Century Gothic"
WEIGHT_NAME "Bold"
SLANT "I"
SETWIDTH_NAME "Normal"
ADD_STYLE_NAME ""
PIXEL_SIZE 36
POINT_SIZE 360
RESOLUTION_X 75
RESOLUTION_Y 75
SPACING "P"
AVERAGE_WIDTH 189
CHARSET_REGISTRY "iso8859"
CHARSET_ENCODING "2"
FACE_NAME "Century Gothic Bold Italic ISO Latin2"
_DEC_DEVICE_FONTNAMES "PS=centurygothic-bit-lat2"
COPYRIGHT "Copyright (c) 1994 Monotype Typography Ltd."
CAP_HEIGHT 33
X_HEIGHT 24
WEIGHT 10
QUAD_WIDTH 22
DEFAULT_CHAR 160
FONT_DESCENT 8
FONT_ASCENT 39
ENDPROPERTIES

CHARS 191

STARTCHAR space
ENCODING 32
SWIDTH 280 0
DWIDTH 11 0
BBX 0 0 0 0
BITMAP
ENDCHAR

STARTCHAR exclam
ENCODING 33
SWIDTH 280 0
DWIDTH 11 0
BBX 9 28 1 0
BITMAP
0F80
0F80
0F80
1F00
1F00
1F00
1F00
1F00
1F00
1F00
3E00
3E00
3E00
3E00
3E00
3E00
3E00
7C00
7C00
7C00
0000
0000
7800
FC00
FC00
FC00
FC00
7800
ENDCHAR

STARTCHAR quotedbl
ENCODING 34
SWIDTH 360 0
DWIDTH 14 0
BBX 12 9 2 19
BITMAP
F9F0
F1F0
F1F0
F0F0
F0F0
F0F0
F0E0
F0E0
F0E0
ENDCHAR

STARTCHAR numbersign
ENCODING 35
SWIDTH 600 0
DWIDTH 23 0
BBX 21 28 1 0
BITMAP
01E3C0
01E3C0
01C3C0
01C3C0
01C380
03C380
03C780
03C780
7FFFF8
7FFFF8
7FFFF8
7FFFF8
078700
078F00
078F00
FFFFF0
FFFFF0
FFFFF0
FFEFF0
0F1E00
0F1E00
0F1E00
0E1E00
0E1E00
1E1E00
1E1C00
1E3C00
1E3C00
ENDCHAR

STARTCHAR dollar
ENCODING 36
SWIDTH 560 0
DWIDTH 21 0
BBX 21 35 -1 -5
BITMAP
000F00
000E00
007F80
01FFC0
03FFF0
07FFF8
07E3F0
0FC0E0
0F8040
0F8000
0FC000
0FE000
07F800
03FC00
01FF00
00FF80
003FC0
001FE0
0007E0
0003F0
0001F0
0001F0
0801F0
3C01F0
FE03F0
7F0FE0
3FFFC0
1FFFC0
0FFF00
03FC00
00E000
00E000
01E000
01E000
01E000
ENDCHAR

STARTCHAR percent
ENCODING 37
SWIDTH 860 0
DWIDTH 33 0
BBX 30 30 1 -1
BITMAP
0000003C
07F803F8
0FFFFFF0
1FFFFFF0
3C7FFDE0
783C03C0
781C0780
701C0F00
703C1E00
783C3C00
7C787800
3FF07800
1FE0F000
0FC1E000
0003C000
00078000
000F0000
001E07E0
003C0FF8
003C1FF8
00783C3C
00F0781C
01E0701C
03C0701C
0780783C
0F007878
1E003FF8
1C003FF0
3C000FC0
F8000000
ENDCHAR

STARTCHAR ampersand
ENCODING 38
SWIDTH 680 0
DWIDTH 26 0
BBX 24 27 1 0
BITMAP
003E00
00FF80
01FFC0
03FFC0
03FFE0
07E3E0
07C3E0
07C7E0
07E7C0
03EFC0
03FF80
01FF00
03FE00
0FFC00
1FFC00
3FFE00
7F3F18
7E3F3C
FC1FFC
F807FE
F80FFC
FC3FF8
7FFFF0
7FFFF8
3FFFFC
1FF8FE
07807F
ENDCHAR

STARTCHAR quoteright
ENCODING 39
SWIDTH 280 0
DWIDTH 11 0
BBX 6 10 4 18
BITMAP
7C
7C
78
78
F8
38
30
70
E0
40
ENDCHAR

STARTCHAR parenleft
ENCODING 40
SWIDTH 380 0
DWIDTH 14 0
BBX 15 37 3 -7
BITMAP
00FE
01F8
03F0
03F0
07E0
0FC0
0FC0
1F80
1F00
1F00
3F00
3E00
7E00
7E00
7C00
7C00
7C00
FC00
FC00
F800
F800
F800
F800
F800
F800
F800
F800
FC00
FC00
FC00
7C00
7E00
7E00
3F00
3F00
3F80
1FC0
ENDCHAR

STARTCHAR parenright
ENCODING 41
SWIDTH 380 0
DWIDTH 14 0
BBX 15 37 -5 -7
BITMAP
03F0
01F8
01F8
00F8
00FC
00FC
007C
007E
007E
003E
003E
003E
003E
003E
003E
003E
003E
003E
003E
007E
007E
007C
007C
007C
00FC
00F8
01F8
01F8
01F0
03F0
07E0
07E0
0FC0
1F80
1F80
3F00
FE00
ENDCHAR

STARTCHAR asterisk
ENCODING 42
SWIDTH 440 0
DWIDTH 17 0
BBX 15 14 2 14
BITMAP
07C0
07C0
2388
739C
7BBC
FDBE
1BB0
07C0
7DFE
FF7C
7BBC
3398
2388
07C0
ENDCHAR

STARTCHAR plus
ENCODING 43
SWIDTH 600 0
DWIDTH 23 0
BBX 19 19 2 4
BITMAP
01F000
01F000
01F000
01F000
01F000
01F000
01F000
FFFFE0
FFFFE0
FFFFE0
FFFFE0
FFFFE0
01F000
01F000
01F000
01F000
01F000
01F000
01F000
ENDCHAR

STARTCHAR comma
ENCODING 44
SWIDTH 280 0
DWIDTH 11 0
BBX 8 9 -1 -4
BITMAP
08
1C
1F
3E
3C
78
70
F0
20
ENDCHAR

STARTCHAR minus
ENCODING 45
SWIDTH 600 0
DWIDTH 23 0
BBX 19 5 2 11
BITMAP
FFFFE0
FFFFE0
FFFFE0
FFFFE0
FFFFE0
ENDCHAR

STARTCHAR period
ENCODING 46
SWIDTH 280 0
DWIDTH 11 0
BBX 6 6 1 0
BITMAP
78
FC
FC
FC
FC
78
ENDCHAR

STARTCHAR slash
ENCODING 47
SWIDTH 460 0
DWIDTH 17 0
BBX 16 33 1 -5
BITMAP
000F
000E
001E
001C
003C
003C
0038
0078
0078
0070
00F0
00E0
01E0
01E0
01C0
03C0
03C0
0380
0780
0700
0F00
0F00
0E00
1E00
1E00
1C00
3C00
3800
7800
7800
7000
F000
F000
ENDCHAR

STARTCHAR zero
ENCODING 48
SWIDTH 560 0
DWIDTH 21 0
BBX 19 28 1 0
BITMAP
007C00
01FF00
07FF80
0FFF80
1FFFC0
1F87C0
3F07C0
3E03E0
7E03E0
7E03E0
7C03E0
7C03E0
7C03E0
F803E0
F803E0
F807E0
F807C0
F807C0
F807C0
F80F80
F80F80
FC1F80
7C3F00
7FFE00
3FFE00
3FFC00
1FF000
038000
ENDCHAR

STARTCHAR one
ENCODING 49
SWIDTH 560 0
DWIDTH 21 0
BBX 10 28 6 0
BITMAP
3FC0
7FC0
7F80
7F80
FF80
0F80
0F80
0F80
0F80
1F80
1F00
1F00
1F00
1F00
1F00
1F00
1F00
3E00
3E00
3E00
3E00
3E00
3E00
3E00
7E00
7C00
7C00
7C00
ENDCHAR

STARTCHAR two
ENCODING 50
SWIDTH 560 0
DWIDTH 21 0
BBX 19 28 0 0
BITMAP
007C00
03FF00
07FF80
0FFFC0
0FFFC0
1F87E0
1F03E0
1F03E0
1F03E0
0003E0
0007C0
0007C0
000FC0
001F80
003F00
007F00
007E00
00FC00
01F800
03F000
07E000
0FC000
1F8000
3FFFC0
7FFFC0
7FFFC0
7FFF80
FFFF80
ENDCHAR

STARTCHAR three
ENCODING 51
SWIDTH 560 0
DWIDTH 21 0
BBX 18 28 1 0
BITMAP
00F800
03FE00
07FF00
0FFF80
0FFFC0
1F8FC0
1F07C0
0007C0
0007C0
000F80
003F80
00FF00
00FC00
00FE00
00FF00
001F80
000F80
0007C0
0007C0
F807C0
7C07C0
7C0FC0
7E1F80
7FFF80
3FFF00
1FFE00
0FFC00
03E000
ENDCHAR

STARTCHAR four
ENCODING 52
SWIDTH 560 0
DWIDTH 21 0
BBX 20 28 0 0
BITMAP
0003E0
0003E0
0007E0
000FE0
001FE0
003FE0
003FC0
007FC0
00FFC0
01FBC0
01F7C0
03E7C0
07C7C0
0FC7C0
1F8780
1F0F80
3E0F80
7C0F80
7FFFF0
7FFFE0
FFFFE0
FFFFE0
000F00
001F00
001F00
001F00
001F00
001F00
ENDCHAR

STARTCHAR five
ENCODING 53
SWIDTH 560 0
DWIDTH 21 0
BBX 20 28 1 0
BITMAP
01FFF0
03FFF0
03FFE0
03FFE0
07FFE0
07C000
07C000
0F8000
0F8000
0FB800
0FFE00
1FFF80
1FFF80
3FFFC0
1F0FC0
010FC0
0007C0
0007C0
0007C0
0007C0
180FC0
780F80
FE1F80
7FFF00
7FFF00
3FFE00
0FF800
03E000
ENDCHAR

STARTCHAR six
ENCODING 54
SWIDTH 560 0
DWIDTH 21 0
BBX 18 28 1 0
BITMAP
001000
003800
007E00
007E00
00FC00
01F800
03F000
03E000
07E000
0FC000
0F8000
1FF800
3FFE00
3FFF00
7FFF80
7F1F80
7C0FC0
F807C0
F807C0
F807C0
F807C0
FC0FC0
7E1F80
7FFF80
3FFF00
1FFE00
0FFC00
03E000
ENDCHAR

STARTCHAR seven
ENCODING 55
SWIDTH 560 0
DWIDTH 21 0
BBX 18 28 3 0
BITMAP
7FFFC0
7FFFC0
7FFFC0
7FFFC0
7FFFC0
000F80
001F00
001F00
003E00
007E00
007C00
00FC00
00F800
01F800
01F000
03E000
07E000
07C000
0FC000
0F8000
1F8000
3F0000
3E0000
7E0000
7C0000
FC0000
380000
080000
ENDCHAR

STARTCHAR eight
ENCODING 56
SWIDTH 560 0
DWIDTH 21 0
BBX 19 28 1 0
BITMAP
007C00
01FF00
07FF80
0FFFC0
0FFFE0
1F87E0
1F03E0
1F03E0
1F03E0
1F87C0
0FFFC0
03FF00
07FC00
1FFF00
3FFF80
7E1F80
7C0FC0
F807C0
F807C0
F807C0
F807C0
FC0FC0
FE1F80
7FFF80
7FFF00
3FFE00
0FFC00
03E000
ENDCHAR

STARTCHAR nine
ENCODING 57
SWIDTH 560 0
DWIDTH 21 0
BBX 18 28 2 0
BITMAP
03F000
0FFC00
1FFE00
3FFF00
7FFF80
7E1F80
FC0FC0
F807C0
F807C0
F807C0
F807C0
FC0F80
7E3F80
7FFF80
3FFF00
1FFF00
07FE00
007C00
00FC00
01F800
01F000
03F000
07E000
0FC000
1F8000
1F8000
070000
020000
ENDCHAR

STARTCHAR colon
ENCODING 58
SWIDTH 280 0
DWIDTH 11 0
BBX 8 21 1 0
BITMAP
1E
3F
3F
3F
3F
1E
00
00
00
00
00
00
00
00
00
78
FC
FC
FC
FC
78
ENDCHAR

STARTCHAR semicolon
ENCODING 59
SWIDTH 280 0
DWIDTH 11 0
BBX 10 25 -1 -4
BITMAP
0780
0FC0
0FC0
0FC0
0FC0
0780
0000
0000
0000
0000
0000
0000
0000
0000
0000
0000
1800
1F00
3E00
3C00
7C00
7800
F000
6000
2000
ENDCHAR

STARTCHAR less
ENCODING 60
SWIDTH 600 0
DWIDTH 23 0
BBX 19 23 2 2
BITMAP
000060
0001E0
0007E0
001FE0
007FE0
00FF80
03FE00
0FF800
3FE000
FF8000
FA0000
FC0000
FF0000
FFC000
3FF000
0FFC00
03FE00
00FF80
003FE0
000FE0
0003E0
0000E0
000020
ENDCHAR

STARTCHAR equal
ENCODING 61
SWIDTH 600 0
DWIDTH 23 0
BBX 19 13 2 7
BITMAP
FFFFE0
FFFFE0
FFFFE0
FFFFE0
FFFFE0
000000
000000
000000
FFFFE0
FFFFE0
FFFFE0
FFFFE0
FFFFE0
ENDCHAR

STARTCHAR greater
ENCODING 62
SWIDTH 600 0
DWIDTH 23 0
BBX 19 23 2 2
BITMAP
800000
E00000
F80000
FE0000
FF8000
3FE000
0FF800
03FE00
00FF80
003FE0
000FE0
0007E0
001FE0
007FE0
01FF80
07FE00
1FF800
7FE000
FF8000
FE0000
F80000
E00000
800000
ENDCHAR

STARTCHAR question
ENCODING 63
SWIDTH 560 0
DWIDTH 21 0
BBX 18 29 2 0
BITMAP
01F000
0FFE00
1FFF00
3FFF80
7FFF80
7C0FC0
F807C0
F807C0
0007C0
000FC0
001F80
007F00
00FF00
01FE00
03F800
03F000
07E000
07C000
07C000
07C000
078000
000000
000000
0F0000
1F8000
1F8000
1F8000
1F8000
0F0000
ENDCHAR

STARTCHAR at
ENCODING 64
SWIDTH 740 0
DWIDTH 28 0
BBX 28 29 0 0
BITMAP
001FC000
00FFF800
03FFFE00
07C01F00
0F000780
1E0003C0
1C0001C0
381F1CE0
703FDCE0
70FFFC70
70FFFC70
E1F8FC70
E1F07C70
E3E07870
E3E07870
E3E07860
E3E07860
E3E0F8C0
71F1F8C0
71FFF180
70FFFF00
387F7E00
1C3C7800
1E0003C0
0F800780
07E01F00
01FFFE00
007FF800
001FC000
ENDCHAR

STARTCHAR A
ENCODING 65
SWIDTH 740 0
DWIDTH 28 0
BBX 25 28 0 0
BITMAP
0003E000
0003E000
0007E000
000FE000
000FF000
001FF000
001FF000
003FF000
003EF800
007EF800
007CF800
00FCF800
00F87C00
01F87C00
01F07C00
03F07C00
03E03E00
07FFFE00
07FFFE00
0FFFFE00
1FFFFF00
1FFFFF00
3F001F00
3E001F00
7E000F80
7C000F80
FC000F80
F8000F80
ENDCHAR

STARTCHAR B
ENCODING 66
SWIDTH 580 0
DWIDTH 22 0
BBX 18 28 1 0
BITMAP
0FF000
0FFE00
1FFF00
1FFF80
1FFF80
1F0FC0
1F07C0
1F07C0
1F07C0
1F07C0
3E0F80
3FFF80
3FFF00
3FFE00
3FFF00
3FFF80
3C1FC0
7C0FC0
7C07C0
7C07C0
7C07C0
7C0FC0
7C1FC0
7FFF80
7FFF80
FFFF00
FFFE00
FFF800
ENDCHAR

STARTCHAR C
ENCODING 67
SWIDTH 780 0
DWIDTH 30 0
BBX 27 28 2 0
BITMAP
000FE000
007FFE00
01FFFF00
03FFFFE0
07FFFFC0
0FF00F80
1FC00300
3F800100
3F000000
7E000000
7C000000
FC000000
F8000000
F8000000
F8000000
F8000000
F8000000
FC000000
FC000000
7E000000
7E000000
3F800C00
3FC03E00
1FFFFF00
0FFFFF80
07FFFE00
01FFF800
003FC000
ENDCHAR

STARTCHAR D
ENCODING 68
SWIDTH 700 0
DWIDTH 27 0
BBX 24 28 1 0
BITMAP
0FFE00
0FFF80
0FFFE0
1FFFF0
1FFFF8
1F03FC
1F00FE
1F007E
1F003E
1F003F
1F001F
3F001F
3F001F
3E001F
3E001F
3E001F
3E001F
3E003F
3E003E
7E007E
7C00FE
7C01FC
7C07F8
7FFFF8
7FFFF0
7FFFC0
FFFF80
FFFC00
ENDCHAR

STARTCHAR E
ENCODING 69
SWIDTH 520 0
DWIDTH 20 0
BBX 18 28 1 0
BITMAP
1FFFC0
1FFFC0
1FFFC0
1FFFC0
1FFFC0
1F0000
1F0000
1F0000
3F0000
3F0000
3E0000
3FFF80
3FFF80
3FFF80
3FFF80
3FFF00
7E0000
7C0000
7C0000
7C0000
7C0000
7C0000
7C0000
FFFE00
FFFE00
FFFE00
FFFE00
FFFE00
ENDCHAR

STARTCHAR F
ENCODING 70
SWIDTH 480 0
DWIDTH 18 0
BBX 17 28 1 0
BITMAP
0FFF80
1FFF80
1FFF80
1FFF80
1FFF00
1F0000
1F0000
1F0000
3F0000
3F0000
3E0000
3FFF00
3FFE00
3FFE00
3FFE00
3FFE00
7E0000
7C0000
7C0000
7C0000
7C0000
7C0000
7C0000
7C0000
FC0000
F80000
F80000
F80000
ENDCHAR

STARTCHAR G
ENCODING 71
SWIDTH 840 0
DWIDTH 32 0
BBX 28 28 2 0
BITMAP
000FE000
007FFC00
01FFFF00
07FFFF80
0FFFFFC0
1FE01FE0
1F8007C0
3F000300
7E000000
7E000000
7C000000
FC000000
F8000000
F803FFF0
F803FFF0
F803FFF0
F803FFF0
FC07FFE0
FC0003E0
7E0007E0
7E000FC0
3F801FC0
3FE07F80
1FFFFF00
0FFFFE00
03FFFC00
01FFF000
003F8000
ENDCHAR

STARTCHAR H
ENCODING 72
SWIDTH 680 0
DWIDTH 26 0
BBX 24 28 1 0
BITMAP
0F803F
0F803E
0F803E
1F803E
1F003E
1F003E
1F003E
1F007E
1F007C
1F007C
1FFFFC
3FFFFC
3FFFFC
3FFFFC
3FFFFC
3E00FC
3E00F8
3E00F8
7E00F8
7C00F8
7C00F8
7C00F8
7C01F8
7C01F0
7C01F0
7C01F0
FC01F0
F801F0
ENDCHAR

STARTCHAR I
ENCODING 73
SWIDTH 280 0
DWIDTH 11 0
BBX 9 28 1 0
BITMAP
0F80
0F80
1F00
1F00
1F00
1F00
1F00
1F00
1F00
3E00
3E00
3E00
3E00
3E00
3E00
3E00
3E00
7C00
7C00
7C00
7C00
7C00
7C00
7C00
7800
F800
F800
F800
ENDCHAR

STARTCHAR J
ENCODING 74
SWIDTH 480 0
DWIDTH 18 0
BBX 18 28 -1 0
BITMAP
0007C0
0007C0
0007C0
000FC0
000F80
000F80
000F80
000F80
000F80
000F80
001F80
001F80
001F00
001F00
001F00
001F00
001F00
001F00
003F00
003E00
183E00
383E00
FE7E00
7FFE00
3FFC00
1FFC00
0FF800
03E000
ENDCHAR

STARTCHAR K
ENCODING 75
SWIDTH 620 0
DWIDTH 24 0
BBX 23 28 1 0
BITMAP
0F80FE
0F81FC
0F83F8
0F87F0
1F87E0
1F0FC0
1F1F80
1F3F00
1F7E00
1F7C00
1FF800
1FF000
3FE000
3FF000
3FF000
3EF800
3EF800
3EFC00
3E7E00
7E3E00
7C3F00
7C1F80
7C1F80
7C0FC0
7C07C0
7C07E0
7C03F0
FC01F8
ENDCHAR

STARTCHAR L
ENCODING 76
SWIDTH 440 0
DWIDTH 17 0
BBX 15 28 1 0
BITMAP
0F80
0F80
0F80
0F80
1F80
1F00
1F00
1F00
1F00
1F00
1F00
3F00
3E00
3E00
3E00
3E00
3E00
3E00
3E00
7E00
7C00
7C00
7C00
7FFE
7FFC
7FFC
FFFC
FFFC
ENDCHAR

STARTCHAR M
ENCODING 77
SWIDTH 900 0
DWIDTH 34 0
BBX 31 28 0 0
BITMAP
01F0007C
01F0007C
03F0007C
03F000FC
03F800FC
03F801FC
07F801FC
07F803FC
07FC03FC
07FC07FC
0FBC07FC
0FBC0FBC
0FBE0FBC
0FBE1F7C
1F3E1F7C
1F1E3E3C
1F1F3E3C
1F1F7C3C
3E1F7C3C
3E1FF83C
3E0FF83C
3E0FF03C
7C0FF03C
7C0FF03C
7C07E03E
7C07E03E
F807C03E
F807C03E
ENDCHAR

STARTCHAR N
ENCODING 78
SWIDTH 740 0
DWIDTH 28 0
BBX 26 28 1 0
BITMAP
0F8007C0
0F8007C0
0FC00FC0
1FC00F80
1FE00F80
1FE00F80
1FF00F80
1FF00F80
1FF80F80
1F780F80
1F7C1F00
3E7C1F00
3E3E1F00
3E3E1F00
3E1F1F00
3E1F9F00
3E0F9F00
3E0FDF00
3C07DE00
7C07FE00
7C03FE00
7C03FE00
7C01FE00
7C01FE00
7C00FE00
7C007C00
F8007C00
F8003C00
ENDCHAR

STARTCHAR O
ENCODING 79
SWIDTH 840 0
DWIDTH 32 0
BBX 29 28 1 0
BITMAP
000FF000
007FFC00
01FFFF00
03FFFF80
07FFFFC0
0FF01FE0
1FC007F0
3F8003F0
3F0001F8
7E0001F8
7C0000F8
7C0000F8
FC0000F8
F80000F8
F80000F8
F80000F8
F80001F8
F80001F0
FC0003F0
FC0007E0
7E000FE0
7F001FC0
3FC07F80
1FFFFF00
1FFFFE00
07FFFC00
03FFF000
007F8000
ENDCHAR

STARTCHAR P
ENCODING 80
SWIDTH 560 0
DWIDTH 21 0
BBX 19 28 1 0
BITMAP
0FF800
1FFF00
1FFF80
1FFFC0
1FFFE0
1F07E0
1F03E0
1F03E0
3F03E0
3E07E0
3E0FE0
3FFFC0
3FFF80
3FFF00
3FFE00
3FF000
7E0000
7C0000
7C0000
7C0000
7C0000
7C0000
7C0000
FC0000
F80000
F80000
F80000
F80000
ENDCHAR

STARTCHAR Q
ENCODING 81
SWIDTH 840 0
DWIDTH 32 0
BBX 30 28 1 0
BITMAP
000FF000
007FFC00
01FFFF00
03FFFF80
07FFFFC0
0FF00FE0
1FC007F0
3F8003F0
3F0001F8
7E0001F8
7C0000F8
7C0000F8
FC0000F8
F80000F8
F80000F8
F80000F8
F80001F8
F80001F0
FC07FBF0
FC01FFE0
7E00FFE0
7F007FC0
3FC07F80
1FFFFF80
1FFFFFC0
07FFFFE0
03FFF7F0
007F83FC
ENDCHAR

STARTCHAR R
ENCODING 82
SWIDTH 580 0
DWIDTH 22 0
BBX 19 28 2 0
BITMAP
0FF800
1FFF00
1FFF80
1FFFC0
1FFFE0
1F07E0
1F03E0
1F03E0
3F03E0
3E07E0
3E1FC0
3FFFC0
3FFF80
3FFF00
3FFC00
3EF800
7CF800
7CF800
7C7C00
7C7C00
7C7E00
7C3E00
7C3F00
FC1F00
F81F80
F80F80
F80FC0
F807C0
ENDCHAR

STARTCHAR S
ENCODING 83
SWIDTH 520 0
DWIDTH 20 0
BBX 19 28 0 0
BITMAP
007C00
01FF00
03FF80
07FFC0
0FFFE0
0F87C0
0F8380
0F8100
0FC000
07C000
07E000
03F000
03F800
01FC00
00FE00
007F00
003F00
001F80
000F80
000F80
180F80
3C0F80
FE1F80
7FFF00
3FFF00
1FFE00
0FFC00
03F000
ENDCHAR

STARTCHAR T
ENCODING 84
SWIDTH 420 0
DWIDTH 16 0
BBX 17 28 1 0
BITMAP
FFFF80
FFFF80
FFFF80
FFFF80
FFFF80
03E000
07E000
07C000
07C000
07C000
07C000
07C000
07C000
07C000
0FC000
0F8000
0F8000
0F8000
0F8000
0F8000
0F8000
1F8000
1F0000
1F0000
1F0000
1F0000
1F0000
1F0000
ENDCHAR

STARTCHAR U
ENCODING 85
SWIDTH 640 0
DWIDTH 24 0
BBX 21 28 2 0
BITMAP
3F00F8
3E00F8
3E01F8
3E01F8
3E01F0
3E01F0
3E01F0
7E01F0
7C01F0
7C01F0
7C03F0
7C03E0
7C03E0
7C03E0
7C03E0
FC03E0
F803E0
F807E0
F807E0
F807C0
F807C0
F80FC0
FC1F80
7FFF80
7FFF00
3FFF00
1FFC00
03E000
ENDCHAR

STARTCHAR V
ENCODING 86
SWIDTH 700 0
DWIDTH 27 0
BBX 26 28 2 0
BITMAP
F8000FC0
F8000F80
7C001F80
7C001F00
7C003F00
7C003E00
7E007E00
3E00FC00
3E00F800
3E01F800
3F01F000
1F03F000
1F03E000
1F07E000
1F07C000
0F8FC000
0F8F8000
0F9F8000
0F9F0000
07DF0000
07FE0000
07FE0000
07FC0000
03FC0000
03F80000
03F80000
03F00000
01F00000
ENDCHAR

STARTCHAR W
ENCODING 87
SWIDTH 900 0
DWIDTH 34 0
BBX 33 28 2 0
BITMAP
F801E00F80
7803E00F80
7803E01F00
7807F01F00
7C07F01F00
7C07F03E00
7C0FF03E00
7C0FF03E00
7C1FF87C00
7C1FF87C00
7C3EF87C00
7C3EF8F800
3C7EF8F800
3C7C78F800
3CFC7DF000
3EF87DF000
3EF87DE000
3EF07DE000
3FF03FE000
3FE03FC000
3FE03FC000
3FC03FC000
3FC03F8000
3F801F8000
1F801F8000
1F001F0000
1F001F0000
1F001F0000
ENDCHAR

STARTCHAR X
ENCODING 88
SWIDTH 680 0
DWIDTH 26 0
BBX 26 28 0 0
BITMAP
07C01FC0
07E01F80
03E03F00
03E07E00
01F07E00
01F0FC00
01F9F800
00F9F800
00FDF000
007FE000
007FC000
003FC000
003F8000
003F0000
003F0000
007F8000
00FF8000
00FFC000
01FBC000
03F7E000
07E3E000
07E3F000
0FC1F000
1F81F000
1F80F800
3F00F800
7E00FC00
FE007C00
ENDCHAR

STARTCHAR Y
ENCODING 89
SWIDTH 620 0
DWIDTH 24 0
BBX 23 28 1 0
BITMAP
FC007E
7C00FC
7C00FC
7E01F8
3E03F0
3F03F0
1F07E0
1F0FC0
1F8F80
0F9F80
0FBF00
07FE00
07FE00
07FC00
03F800
03F800
01F000
03F000
03E000
03E000
03E000
03E000
03E000
03E000
03E000
07E000
07C000
07C000
ENDCHAR

STARTCHAR Z
ENCODING 90
SWIDTH 500 0
DWIDTH 19 0
BBX 19 28 0 0
BITMAP
1FFFE0
1FFFC0
1FFFC0
1FFF80
1FFF80
001F00
003F00
003E00
003E00
007C00
007C00
00F800
00F800
01F800
01F000
03F000
03E000
07E000
07C000
0FC000
0F8000
1F8000
1F0000
3FFF80
3FFF00
7FFF00
7FFF00
FFFF00
ENDCHAR

STARTCHAR bracketleft
ENCODING 91
SWIDTH 320 0
DWIDTH 12 0
BBX 13 35 1 -7
BITMAP
07F8
07F8
07F8
0FF0
0FF0
0F80
0F80
0F80
0F80
0F80
1F80
1F00
1F00
1F00
1F00
1F00
1F00
3F00
3E00
3E00
3E00
3E00
3E00
3E00
7E00
7C00
7C00
7C00
7C00
7C00
7F80
FF80
FF00
FF00
FF00
ENDCHAR

STARTCHAR backslash
ENCODING 92
SWIDTH 640 0
DWIDTH 24 0
BBX 16 33 4 -5
BITMAP
F000
7000
7800
7800
3800
3C00
1C00
1E00
1E00
0E00
0F00
0F00
0700
0780
0380
03C0
03C0
01C0
01E0
01E0
00E0
00F0
0070
0078
0078
0038
003C
003C
001C
001E
000E
000F
000F
ENDCHAR

STARTCHAR bracketright
ENCODING 93
SWIDTH 320 0
DWIDTH 12 0
BBX 13 35 -2 -7
BITMAP
07F8
0FF8
0FF0
0FF0
0FF0
01F0
01F0
01F0
03F0
03E0
03E0
03E0
03E0
03E0
03E0
07E0
07C0
07C0
07C0
07C0
07C0
07C0
0FC0
0F80
0F80
0F80
0F80
0F80
0F80
1F80
FF00
FF00
FF00
FF00
FF00
ENDCHAR

STARTCHAR asciicircum
ENCODING 94
SWIDTH 600 0
DWIDTH 23 0
BBX 19 21 2 7
BITMAP
01F000
01F000
03F000
03F800
03F800
07F800
07FC00
07BC00
0FBE00
0F3E00
0F1E00
1F1F00
1E1F00
3E0F00
3E0F80
3C0F80
7C0780
7C07C0
7803C0
F803C0
F803E0
ENDCHAR

STARTCHAR underscore
ENCODING 95
SWIDTH 500 0
DWIDTH 19 0
BBX 19 2 0 -5
BITMAP
FFFFE0
FFFFE0
ENDCHAR

STARTCHAR quoteleft
ENCODING 96
SWIDTH 280 0
DWIDTH 11 0
BBX 6 10 4 18
BITMAP
08
1C
38
30
70
7C
78
F8
F8
F8
ENDCHAR

STARTCHAR a
ENCODING 97
SWIDTH 660 0
DWIDTH 25 0
BBX 22 21 1 0
BITMAP
00787C
03FE7C
0FFF7C
1FFFFC
1FFFFC
3F03FC
7E01F8
7C00F8
FC00F8
F800F8
F800F8
F800F8
F800F8
F801F8
FC01F0
7E03F0
7F0FF0
3FFFF0
1FFEF0
0FFDF0
03F1F0
ENDCHAR

STARTCHAR b
ENCODING 98
SWIDTH 660 0
DWIDTH 25 0
BBX 22 28 1 0
BITMAP
1F0000
1F0000
1F0000
1F0000
1F0000
1F0000
1E0000
3E3F00
3EFFC0
3FFFE0
3FFFF0
3FC3F8
3F00F8
3E00FC
3E007C
7C007C
7C007C
7C007C
7C007C
7C00FC
7C00F8
7E01F8
7F03F0
FFFFF0
FFFFE0
FBFFC0
F9FF80
F87C00
ENDCHAR

STARTCHAR c
ENCODING 99
SWIDTH 640 0
DWIDTH 24 0
BBX 21 21 1 0
BITMAP
007E00
03FFC0
07FFE0
1FFFF0
3FFFF8
3F81F0
7E00C0
7C0000
FC0000
F80000
F80000
F80000
F80000
F80000
7C0180
7E03C0
7FFFF0
3FFFE0
1FFFC0
07FF00
00F800
ENDCHAR

STARTCHAR d
ENCODING 100
SWIDTH 660 0
DWIDTH 25 0
BBX 23 28 1 0
BITMAP
00003E
00003E
00003E
00003E
00003E
00003E
00007C
00787C
03FE7C
0FFF7C
1FFFFC
1FFFFC
3F03FC
7E01F8
7C00F8
FC00F8
F800F8
F800F8
F800F8
F800F8
F801F8
FC01F0
7E03F0
7F0FF0
3FFFF0
1FFEF0
0FFDF0
03F1F0
ENDCHAR

STARTCHAR e
ENCODING 101
SWIDTH 640 0
DWIDTH 24 0
BBX 21 21 1 0
BITMAP
007C00
03FF00
0FFFC0
1FFFE0
3FFFF0
3F03F0
7E01F8
7C00F8
FFFFF8
FFFFF8
FFFFF8
FFFFF8
F80000
F80000
7C0100
7E0780
7FFFE0
3FFFC0
1FFF80
07FF00
00F800
ENDCHAR

STARTCHAR f
ENCODING 102
SWIDTH 280 0
DWIDTH 11 0
BBX 13 29 0 0
BITMAP
03F0
07F8
07F0
0FF0
0F90
0F80
1F00
1F00
7FE0
7FE0
7FE0
7FE0
1F00
3E00
3E00
3E00
3E00
3E00
3E00
3E00
3E00
7C00
7C00
7C00
7C00
7C00
7C00
7C00
F800
ENDCHAR

STARTCHAR g
ENCODING 103
SWIDTH 660 0
DWIDTH 25 0
BBX 22 28 1 -7
BITMAP
00F87C
07FE7C
0FFF7C
1FFFFC
3FFFFC
3F03F8
7E01F8
7C00F8
FC00F8
F800F8
F800F8
F800F8
F800F8
F801F0
7C03F0
7E07F0
3FFFF0
3FFFF0
1FFEF0
07F9F0
0003E0
0003E0
3807E0
FFFFC0
FFFF80
7FFF00
1FFE00
03F000
ENDCHAR

STARTCHAR h
ENCODING 104
SWIDTH 600 0
DWIDTH 23 0
BBX 19 28 1 0
BITMAP
0F8000
1F0000
1F0000
1F0000
1F0000
1F0000
1F0000
1E1E00
3E7F80
3FFFC0
3FFFE0
3FFFE0
3F87E0
3F03E0
3E03E0
7E03E0
7C03E0
7C03E0
7C03C0
7C07C0
7C07C0
7C07C0
F807C0
F807C0
F807C0
F807C0
F80F80
F80F80
ENDCHAR

STARTCHAR i
ENCODING 105
SWIDTH 240 0
DWIDTH 9 0
BBX 9 29 0 0
BITMAP
0F00
1F80
1F80
1F80
1F80
0F00
0000
0000
1F00
1F00
1F00
3E00
3E00
3E00
3E00
3E00
3E00
3E00
3C00
7C00
7C00
7C00
7C00
7C00
7C00
7C00
F800
F800
F800
ENDCHAR

STARTCHAR j
ENCODING 106
SWIDTH 260 0
DWIDTH 10 0
BBX 13 36 -4 -7
BITMAP
00F0
01F8
01F8
01F8
01F8
00F0
0000
0000
01F0
01F0
03E0
03E0
03E0
03E0
03E0
03E0
03E0
03C0
07C0
07C0
07C0
07C0
07C0
07C0
07C0
0F80
0F80
0F80
0F80
0F80
1F80
FF00
FF00
FE00
FE00
7800
ENDCHAR

STARTCHAR k
ENCODING 107
SWIDTH 580 0
DWIDTH 22 0
BBX 21 28 1 0
BITMAP
0F0000
1F0000
1F0000
1F0000
1F0000
1F0000
1F0000
1E03F8
3E07F0
3E0FE0
3E1FC0
3E3F00
3E7E00
3FFC00
3FF800
3FF000
7FE000
7FF000
7DF800
7CFC00
7CFC00
7C7E00
783F00
F81F80
F81F80
F80FC0
F807E0
F803F0
ENDCHAR

STARTCHAR l
ENCODING 108
SWIDTH 240 0
DWIDTH 9 0
BBX 9 28 0 0
BITMAP
0F80
0F80
0F80
0F00
1F00
1F00
1F00
1F00
1F00
1F00
1F00
3E00
3E00
3E00
3E00
3E00
3E00
3E00
3C00
7C00
7C00
7C00
7C00
7C00
7C00
7C00
F800
F800
ENDCHAR

STARTCHAR m
ENCODING 109
SWIDTH 940 0
DWIDTH 36 0
BBX 32 21 1 0
BITMAP
1F1E00F0
3E7F83FC
3EFFCFFE
3FFFEFFF
3FFFFFFF
3F87FC3F
3F03F81F
3E03F01F
3E03F01F
7E03E01F
7C03E01F
7C03E01E
7C03E03E
7C03E03E
7C07C03E
7C07C03E
F807C03E
F807C03E
F807C03E
F807C07C
F807C07C
ENDCHAR

STARTCHAR n
ENCODING 110
SWIDTH 600 0
DWIDTH 23 0
BBX 19 21 1 0
BITMAP
3E1E00
3E7F80
3FFFC0
3FFFE0
3FFFE0
3F87E0
3F03E0
3E03E0
7E03E0
7C03E0
7C03E0
7C03C0
7C07C0
7C07C0
7C07C0
F807C0
F807C0
F807C0
F807C0
F80F80
F80F80
ENDCHAR

STARTCHAR o
ENCODING 111
SWIDTH 640 0
DWIDTH 24 0
BBX 21 21 1 0
BITMAP
007C00
03FF80
07FFC0
1FFFE0
1FFFF0
3F03F0
7E01F8
7C00F8
FC00F8
F800F8
F800F8
F800F8
F801F8
F801F0
FC03F0
7E07E0
7FFFE0
3FFFC0
1FFF00
0FFE00
01F000
ENDCHAR

STARTCHAR p
ENCODING 112
SWIDTH 660 0
DWIDTH 25 0
BBX 23 28 0 -7
BITMAP
1F1FC0
1F7FE0
1FFFF0
1FFFF8
1FE1FC
1F807C
1F007E
3F003E
3E003E
3E003E
3E003E
3E003E
3E007E
3E007C
3F00FC
7F81F8
7FFFF0
7DFFF0
7DFFE0
7CFF80
7C3E00
7C0000
780000
F80000
F80000
F80000
F80000
F80000
ENDCHAR

STARTCHAR q
ENCODING 113
SWIDTH 660 0
DWIDTH 25 0
BBX 22 28 1 -7
BITMAP
01F87C
07FE7C
0FFF7C
1FFFFC
3FFFFC
3F03FC
7E01F8
7C00F8
FC00F8
F800F8
F800F8
F800F8
F800F8
F801F0
7C01F0
7E03F0
7F0FF0
3FFFF0
1FFEF0
0FFDF0
03F1F0
0001E0
0003E0
0003E0
0003E0
0003E0
0003E0
0003E0
ENDCHAR

STARTCHAR r
ENCODING 114
SWIDTH 320 0
DWIDTH 12 0
BBX 13 21 0 0
BITMAP
3E78
3EF0
3DF0
3FE0
3FE0
3F00
3E00
7E00
7E00
7C00
7C00
7C00
7C00
7C00
F800
F800
F800
F800
F800
F800
F800
ENDCHAR

STARTCHAR s
ENCODING 115
SWIDTH 440 0
DWIDTH 17 0
BBX 15 21 0 0
BITMAP
03C0
0FF8
1FFC
1FFE
3FFC
3E18
3E08
3F00
1FC0
0FE0
07F0
03F8
01FC
007C
207C
787C
FFFC
FFF8
7FF0
3FE0
0780
ENDCHAR

STARTCHAR t
ENCODING 116
SWIDTH 300 0
DWIDTH 11 0
BBX 11 29 1 0
BITMAP
0F80
1F00
1F00
1F00
1F00
1F00
1F00
1F00
FFE0
FFC0
FFC0
FFC0
3E00
3E00
3E00
3E00
7C00
7C00
7C00
7C00
7C00
7C00
7C00
7800
F800
F800
F800
F800
F800
ENDCHAR

STARTCHAR u
ENCODING 117
SWIDTH 600 0
DWIDTH 23 0
BBX 19 21 2 0
BITMAP
3E03E0
7C03E0
7C03E0
7C03E0
7C07C0
7C07C0
7C07C0
7C07C0
F807C0
F807C0
F807C0
F80780
F80F80
F80F80
F80F80
FC1F00
7FFF00
7FFE00
3FFC00
1FF800
03E000
ENDCHAR

STARTCHAR v
ENCODING 118
SWIDTH 560 0
DWIDTH 21 0
BBX 20 21 1 0
BITMAP
F803F0
F803E0
7C07E0
7C07C0
7C0F80
3C1F80
3E1F00
3E3F00
3E3E00
1F7E00
1F7C00
1F7800
1FF800
0FF000
0FF000
0FE000
07E000
07C000
07C000
078000
030000
ENDCHAR

STARTCHAR w
ENCODING 119
SWIDTH 800 0
DWIDTH 30 0
BBX 29 21 1 0
BITMAP
F80700F8
F80701F8
780F01F0
7C0F03F0
7C1F83E0
7C1F87C0
3C3F87C0
3E3F8F80
3E7FCF80
3EFFDF00
1EFBDF00
1FF3FE00
1FF3FE00
1FE3FC00
0FE3FC00
0FC1F800
0FC1F800
0F81F000
0F81F000
0700E000
0700E000
ENDCHAR

STARTCHAR x
ENCODING 120
SWIDTH 560 0
DWIDTH 21 0
BBX 21 21 -1 0
BITMAP
3F01F8
1F03F0
0F83E0
0FC7E0
07CFC0
07FF80
03FF80
01FF00
01FE00
00FC00
00FC00
01FC00
03FE00
03FF00
07FF00
0FDF80
0F8F80
1F87C0
3F07E0
7E03E0
FE03F0
ENDCHAR

STARTCHAR y
ENCODING 121
SWIDTH 580 0
DWIDTH 22 0
BBX 21 28 1 -7
BITMAP
F801F8
F801F0
7C03F0
7C03E0
7C07C0
3C0FC0
3E0F80
3E1F80
1E1F00
1F3F00
1F3E00
0F7C00
0FFC00
0FF800
0FF800
07F000
07F000
07E000
07C000
0FC000
0F8000
1F8000
1F0000
3F0000
3E0000
7C0000
FC0000
F80000
ENDCHAR

STARTCHAR z
ENCODING 122
SWIDTH 460 0
DWIDTH 17 0
BBX 19 21 -1 0
BITMAP
1FFFE0
3FFFC0
3FFF80
3FFF00
3FFF00
003E00
007E00
00FC00
00F800
01F800
03F000
03E000
07E000
0FC000
0F8000
1F0000
3FFFC0
3FFFC0
7FFF80
7FFF80
FFFF80
ENDCHAR

STARTCHAR braceleft
ENCODING 123
SWIDTH 340 0
DWIDTH 13 0
BBX 15 35 0 -7
BITMAP
007E
00FE
01FE
03FE
03F0
03E0
03C0
03C0
07C0
07C0
07C0
07C0
0F80
0F80
1F80
FF00
FE00
F800
FE00
FE00
3F00
1F00
1F00
1F00
1F00
1F00
3F00
3E00
3E00
3E00
3F00
3FC0
3FC0
1FC0
0FC0
ENDCHAR

STARTCHAR bar
ENCODING 124
SWIDTH 600 0
DWIDTH 23 0
BBX 3 35 10 -7
BITMAP
E0
E0
E0
E0
E0
E0
E0
E0
E0
E0
E0
E0
E0
E0
E0
E0
E0
E0
E0
E0
E0
E0
E0
E0
E0
E0
E0
E0
E0
E0
E0
E0
E0
E0
E0
ENDCHAR

STARTCHAR braceright
ENCODING 125
SWIDTH 340 0
DWIDTH 13 0
BBX 15 35 -4 -7
BITMAP
07E0
07F0
07F8
07F8
01F8
00F8
00F8
00F8
00F8
01F0
01F0
01F0
01F0
01F0
01F8
00FE
00BE
007E
00FE
01FE
03F0
03E0
03E0
07C0
07C0
07C0
07C0
07C0
0780
0F80
1F80
FF80
FF00
FE00
F800
ENDCHAR

STARTCHAR asciitilde
ENCODING 126
SWIDTH 600 0
DWIDTH 23 0
BBX 19 8 2 10
BITMAP
7F0000
FFC020
FFF8E0
FFFFE0
FFFFE0
E3FFE0
807FE0
001F80
ENDCHAR

STARTCHAR space
ENCODING 160
SWIDTH 280 0
DWIDTH 13 0
BBX 0 0 0 0
BITMAP
ENDCHAR

STARTCHAR Aogonek
ENCODING 161
SWIDTH 740 0
DWIDTH 28 0
BBX 27 35 -1 -7
BITMAP
0001F000
0003F000
0003F000
0007F000
0007F800
000FF800
000FF800
001FF800
001F7C00
003F7C00
003E7C00
007E7C00
007C3E00
00FC3E00
00F83E00
01F03E00
03F01F00
03FFFF00
07FFFF00
07FFFF00
0FFFFF80
0FFFFF80
1F800F80
1F000F80
3F0007C0
3E0007C0
7E0007C0
FC0004C0
00000380
00000700
00000E00
00000F00
00000FE0
00000FC0
000003C0
ENDCHAR

STARTCHAR breve
ENCODING 162
SWIDTH 480 0
DWIDTH 18 0
BBX 15 5 3 24
BITMAP
F83E
7FFE
7FFC
3FF0
07C0
ENDCHAR

STARTCHAR Lslash
ENCODING 163
SWIDTH 480 0
DWIDTH 18 0
BBX 16 28 0 0
BITMAP
03E0
03E0
07E0
07E0
07C0
07C0
07C0
07C0
07C4
07DC
0FFC
0FF8
0FE0
1F80
7F80
7F80
E780
DF80
1F00
1F00
1F00
1F00
1F00
1FFF
1FFF
3FFF
3FFF
3FFF
ENDCHAR

STARTCHAR currency
ENCODING 164
SWIDTH 600 0
DWIDTH 23 0
BBX 19 19 2 4
BITMAP
21F080
77FDC0
FFFFE0
7FFFC0
3E0780
7803C0
7803C0
F001E0
F001E0
F001E0
F001E0
F001E0
7803C0
7803C0
3E0F80
7FFFC0
FFFFE0
77FDC0
21F080
ENDCHAR

STARTCHAR Lcaron
ENCODING 165
SWIDTH 440 0
DWIDTH 17 0
BBX 16 28 1 0
BITMAP
0F9F
0F9F
0F9F
0F9F
1F9E
1F0E
1F0E
1F1C
1F3C
1F18
1F00
3F00
3E00
3E00
3E00
3E00
3E00
3E00
3E00
7E00
7C00
7C00
7C00
7FFE
7FFC
7FFC
FFFC
FFFC
ENDCHAR

STARTCHAR Sacute
ENCODING 166
SWIDTH 520 0
DWIDTH 20 0
BBX 19 36 0 0
BITMAP
000FE0
001F80
001F00
003E00
007C00
007800
00E000
000000
007C00
01FF00
03FF80
07FFC0
0FFFE0
0F87C0
0F8380
0F8100
0FC000
0FC000
07E000
03F000
03F800
01FC00
00FE00
007F00
003F00
001F80
000F80
000F80
180F80
3C0F80
FE1F80
7FFF00
3FFF00
1FFE00
0FFC00
03F000
ENDCHAR

STARTCHAR section
ENCODING 167
SWIDTH 560 0
DWIDTH 21 0
BBX 18 37 1 -7
BITMAP
00FC00
03FF00
07FF80
0FFFC0
0FFFC0
1F87C0
1F07C0
1F0000
1F8000
0FC000
07F000
07F800
0FFE00
1FFF00
3E7F80
7C3F80
780FC0
7807C0
7C07C0
7C07C0
7F0780
3F8F80
3FDF00
1FFE00
07F800
03FC00
01FC00
00FE00
007E00
003E00
F83E00
FC7E00
7FFC00
7FFC00
3FF800
1FF000
078000
ENDCHAR

STARTCHAR dieresis
ENCODING 168
SWIDTH 500 0
DWIDTH 19 0
BBX 13 5 4 23
BITMAP
7878
F8F8
F8F8
F8F8
F070
ENDCHAR

STARTCHAR Scaron
ENCODING 169
SWIDTH 520 0
DWIDTH 20 0
BBX 19 34 0 0
BITMAP
0FC7E0
07CF80
03EF00
01FE00
00FC00
000000
007C00
01FF00
03FF80
07FFC0
0FFFE0
0F87C0
0F8380
0F8100
0FC000
0FC000
07E000
03F000
03F800
01FC00
00FE00
007F00
003F00
001F80
000F80
000F80
180F80
3C0F80
FE1F80
7FFF00
3FFF00
1FFE00
0FFC00
03F000
ENDCHAR

STARTCHAR Scommaaccent
ENCODING 170
SWIDTH 520 0
DWIDTH 20 0
BBX 19 36 0 -8
BITMAP
007C00
01FF00
03FF80
07FFC0
0FFFE0
0F87C0
0F8380
0F8100
0FC000
0FC000
07E000
03F000
03F800
01FC00
00FE00
007F00
003F00
001F80
000F80
000F80
180F80
3C0F80
FE1F80
7FFF00
3FFF00
1FFE00
0FFC00
03F000
000000
000000
01E000
01C000
01C000
00C000
018000
008000
ENDCHAR

STARTCHAR Tcaron
ENCODING 171
SWIDTH 420 0
DWIDTH 16 0
BBX 18 35 1 0
BITMAP
1F0FC0
0F9F80
07DF00
03FC00
03F800
01F000
000000
FFFF80
FFFF80
FFFF80
FFFF80
FFFF80
03E000
07E000
07C000
07C000
07C000
07C000
07C000
07C000
07C000
0FC000
0F8000
0F8000
0F8000
0F8000
0F8000
0F8000
1F8000
1F0000
1F0000
1F0000
1F0000
1F0000
1F0000
ENDCHAR

STARTCHAR Zacute
ENCODING 172
SWIDTH 500 0
DWIDTH 19 0
BBX 19 37 0 0
BITMAP
000FE0
000F80
001F00
003E00
007C00
007800
00F000
000000
000000
1FFFE0
1FFFC0
1FFFC0
1FFF80
1FFF80
001F00
003F00
003E00
003E00
007C00
007C00
00F800
00F800
01F800
01F000
03F000
03E000
07E000
07C000
0FC000
0F8000
1F8000
1F0000
3FFF80
3FFF00
7FFF00
7FFF00
FFFF00
ENDCHAR

STARTCHAR hyphen
ENCODING 173
SWIDTH 420 0
DWIDTH 16 0
BBX 11 5 2 8
BITMAP
7FE0
7FE0
7FE0
FFC0
FFC0
ENDCHAR

STARTCHAR Zcaron
ENCODING 174
SWIDTH 500 0
DWIDTH 19 0
BBX 19 35 0 0
BITMAP
0F87E0
07CFC0
03EF80
01FE00
00FC00
007800
000000
1FFFE0
1FFFC0
1FFFC0
1FFF80
1FFF80
001F00
003F00
003E00
003E00
007C00
007C00
00F800
00F800
01F800
01F000
03F000
03E000
07E000
07C000
0FC000
0F8000
1F8000
1F0000
3FFF80
3FFF00
7FFF00
7FFF00
FFFF00
ENDCHAR

STARTCHAR Zdotaccent
ENCODING 175
SWIDTH 500 0
DWIDTH 19 0
BBX 18 34 1 0
BITMAP
007800
00F800
00F800
00F800
007000
000000
1FFFC0
1FFFC0
3FFF80
3FFF80
3FDF00
003F00
003E00
007E00
007C00
00FC00
00F800
01F800
01F000
01F000
03E000
03E000
07C000
07C000
0F8000
0F8000
1F8000
1F0000
3E0000
3FFF00
7FFF00
7FFF00
FFFE00
FFFE00
ENDCHAR

STARTCHAR degree
ENCODING 176
SWIDTH 400 0
DWIDTH 15 0
BBX 13 13 2 15
BITMAP
0F80
3FE0
78F0
6030
E038
C018
C018
C018
E038
6030
78F0
3FE0
0F80
ENDCHAR

STARTCHAR aogonek
ENCODING 177
SWIDTH 660 0
DWIDTH 25 0
BBX 22 28 1 -7
BITMAP
00F87C
03FE7C
0FFF7C
1FFFBC
1FFFF8
3F03F8
7E01F8
7C00F8
FC00F8
F800F8
F800F8
F800F8
F800F0
F801F0
7C03F0
7C07F0
7F0FF0
3FFFF0
1FFEF0
0FF9F0
03F260
0001C0
000380
000700
000700
0007F0
0007E0
0001E0
ENDCHAR

STARTCHAR ogonek
ENCODING 178
SWIDTH 340 0
DWIDTH 13 0
BBX 7 8 3 -7
BITMAP
1C
38
70
E0
F0
FE
FC
3C
ENDCHAR

STARTCHAR lslash
ENCODING 179
SWIDTH 320 0
DWIDTH 12 0
BBX 12 28 0 0
BITMAP
07C0
07C0
07C0
07C0
07C0
07C0
07C0
0F80
0F80
0F90
0FB0
0FF0
0FF0
0FC0
3F00
FF00
FF00
EF00
9F00
1F00
1F00
1F00
3E00
3E00
3E00
3E00
3E00
3E00
ENDCHAR

STARTCHAR acute
ENCODING 180
SWIDTH 420 0
DWIDTH 16 0
BBX 11 7 6 24
BITMAP
07E0
0FC0
1F80
1F00
3C00
7800
F000
ENDCHAR

STARTCHAR lcaron
ENCODING 181
SWIDTH 289 0
DWIDTH 11 0
BBX 14 28 0 0
BITMAP
0FBC
0FBC
0FBC
1F3C
1F18
1F18
1F70
1F30
1F10
1F00
1E00
3E00
3E00
3E00
3E00
3E00
3E00
3E00
7C00
7C00
7C00
7C00
7C00
7C00
7C00
7C00
F800
F800
ENDCHAR

STARTCHAR sacute
ENCODING 182
SWIDTH 440 0
DWIDTH 17 0
BBX 16 31 0 0
BITMAP
003F
007E
00FC
00F0
01E0
03C0
0780
0000
0000
0000
03C0
0FF8
1FFC
1FFE
3FFC
3E18
3E08
3F00
1FC0
0FE0
07F0
03F8
01FC
007C
207C
787C
FFFC
FFF8
7FF0
3FE0
0780
ENDCHAR

STARTCHAR caron
ENCODING 183
SWIDTH 540 0
DWIDTH 21 0
BBX 15 6 5 23
BITMAP
F87E
7CFC
7EF0
3FE0
1FC0
0F80
ENDCHAR

STARTCHAR commaaccent
ENCODING 184
SWIDTH 333 0
DWIDTH 13 0
BBX 4 6 4 -8
BITMAP
70
70
F0
20
60
40
ENDCHAR

STARTCHAR scaron
ENCODING 185
SWIDTH 440 0
DWIDTH 17 0
BBX 16 29 0 0
BITMAP
3E1F
3F3E
1F7C
0FF8
07F0
03C0
0000
0000
03C0
0FF8
1FFC
1FFE
3FFC
3E18
3E08
3F00
1FC0
0FE0
07F0
03F8
01FC
007C
207C
787C
FFFC
FFF8
7FF0
3FE0
0780
ENDCHAR

STARTCHAR scommaaccent
ENCODING 186
SWIDTH 440 0
DWIDTH 17 0
BBX 15 29 0 -8
BITMAP
03C0
0FF8
1FFC
1FFE
3FFC
3E18
3E08
3F00
1FC0
0FE0
07F0
03F8
01FC
007C
207C
787C
FFFC
FFF8
7FF0
3FE0
0FC0
0000
0000
0700
0700
0700
0200
0600
0400
ENDCHAR

STARTCHAR tcaron
ENCODING 187
SWIDTH 318 0
DWIDTH 12 0
BBX 16 28 1 0
BITMAP
0F9F
1F1E
1F16
1F0E
1F0C
1F18
1F08
FFE0
FFC0
FFC0
FFC0
3E00
3E00
3E00
3E00
7C00
7C00
7C00
7C00
7C00
7C00
7C00
7800
F800
F800
F800
F800
F800
ENDCHAR

STARTCHAR zacute
ENCODING 188
SWIDTH 460 0
DWIDTH 17 0
BBX 19 32 -1 0
BITMAP
000FE0
000F80
001F00
003E00
007C00
007800
01F000
000000
000000
000000
000000
1FFFE0
3FFFC0
3FFF80
3FFF00
3FFF00
003E00
007E00
00FC00
00F800
01F800
03F000
03E000
07E000
0FC000
0F8000
1F0000
3FFFC0
3FFFC0
7FFF80
7FFF80
FFFF80
ENDCHAR

STARTCHAR hungarumlaut
ENCODING 189
SWIDTH 700 0
DWIDTH 27 0
BBX 20 7 9 24
BITMAP
07F3F0
07C7C0
0F8F80
1F1F00
3E1E00
3C3C00
F87800
ENDCHAR

STARTCHAR zcaron
ENCODING 190
SWIDTH 460 0
DWIDTH 17 0
BBX 19 29 -1 0
BITMAP
0F8FE0
07DF80
03FE00
01FC00
00F800
000000
000000
000000
1FFFE0
3FFFC0
3FFF80
3FFF00
3FFF00
003E00
007E00
00FC00
00F800
01F800
03F000
03E000
07E000
0FC000
0F8000
1F0000
3FFFC0
3FFFC0
7FFF80
7FFF80
FFFF80
ENDCHAR

STARTCHAR zdotaccent
ENCODING 191
SWIDTH 460 0
DWIDTH 17 0
BBX 19 29 -2 0
BITMAP
003C00
007C00
007C00
007C00
003800
000000
000000
000000
1FFFE0
1FFFE0
1FFFC0
1FFF80
1FDF80
003F00
003E00
007E00
00FC00
00F800
01F800
03F000
03E000
07E000
0FC000
0F8000
1FFFE0
1FFFC0
3FFFC0
7FFFC0
FFFFC0
ENDCHAR

STARTCHAR Racute
ENCODING 192
SWIDTH 580 0
DWIDTH 22 0
BBX 19 37 2 0
BITMAP
000FE0
000F80
001F00
003E00
007C00
007800
01F000
000000
000000
0FF800
1FFF00
1FFF80
1FFFC0
1FFFE0
1F07E0
1F03E0
1F03E0
3F03E0
3E07E0
3E1FC0
3FFFC0
3FFF80
3FFF00
3FFC00
3EF800
7CF800
7CF800
7C7C00
7C7C00
7C7E00
7C3E00
7C3F00
FC1F00
F81F80
F80F80
F80FC0
F807C0
ENDCHAR

STARTCHAR Aacute
ENCODING 193
SWIDTH 740 0
DWIDTH 28 0
BBX 25 37 0 0
BITMAP
00003F00
00007E00
0000FC00
0000F800
0001E000
0003C000
00078000
00000000
00000000
0003E000
0003E000
0007E000
000FE000
000FF000
001FF000
001FF000
003FF000
003EF800
007EF800
007CF800
00FCF800
00F87C00
01F87C00
01F07C00
03F07C00
03E03E00
07FFFE00
07FFFE00
0FFFFE00
1FFFFF00
1FFFFF00
3F001F00
3E001F00
7E000F80
7C000F80
FC000F80
F8000F80
ENDCHAR

STARTCHAR Acircumflex
ENCODING 194
SWIDTH 740 0
DWIDTH 28 0
BBX 25 34 0 0
BITMAP
0003F000
0007F800
000FBC00
003F3E00
007E3F00
00000000
0003E000
0003E000
0007E000
000FE000
000FF000
001FF000
001FF000
003FF000
003EF800
007EF800
007CF800
00FCF800
00F87C00
01F87C00
01F07C00
03F07C00
03E03E00
07FFFE00
07FFFE00
0FFFFE00
1FFFFF00
1FFFFF00
3F001F00
3E001F00
7E000F80
7C000F80
FC000F80
F8000F80
ENDCHAR

STARTCHAR Abreve
ENCODING 195
SWIDTH 740 0
DWIDTH 28 0
BBX 25 35 0 0
BITMAP
007C1F00
007FFE00
003FFE00
001FF800
0007E000
00000000
00000000
0003E000
0003E000
0007E000
000FF000
000FF000
001FF000
001FF000
003FF000
003EF800
007EF800
007CF800
00FCF800
00F87C00
01F87C00
01F07C00
03F07C00
03E03E00
07FFFE00
07FFFE00
0FFFFE00
1FFFFF00
1FFFFF00
3F001F00
3E001F00
7E000F80
7C000F80
FC000F80
F8000F80
ENDCHAR

STARTCHAR Adieresis
ENCODING 196
SWIDTH 740 0
DWIDTH 28 0
BBX 25 34 0 0
BITMAP
001E1E00
003E3E00
003E3E00
003E3E00
001C1C00
00000000
0003E000
0003E000
0007E000
0007F000
000FF000
000FF000
001FF000
001FF800
003EF800
003EF800
007CF800
00FC7C00
00F87C00
01F87C00
01F07C00
03F03C00
03E03E00
07FFFE00
07FFFE00
0FFFFE00
0FFFFF00
1FFFFF00
1F001F00
3F001F00
3E000F80
7E000F80
7C000F80
FC000F80
ENDCHAR

STARTCHAR Lacute
ENCODING 197
SWIDTH 440 0
DWIDTH 17 0
BBX 17 37 1 0
BITMAP
003F80
003E00
007C00
00F800
01F000
01E000
07C000
000000
000000
0F8000
0F8000
0F8000
0F8000
1F8000
1F0000
1F0000
1F0000
1F0000
1F0000
1F0000
3F0000
3E0000
3E0000
3E0000
3E0000
3E0000
3E0000
3E0000
7E0000
7C0000
7C0000
7C0000
7FFE00
7FFC00
7FFC00
FFFC00
FFFC00
ENDCHAR

STARTCHAR Cacute
ENCODING 198
SWIDTH 780 0
DWIDTH 30 0
BBX 27 36 2 0
BITMAP
0000FE00
0001F800
0003F000
0003C000
00078000
000F0000
001E0000
00000000
000FE000
007FFE00
01FFFF00
03FFFFE0
07FFFFC0
0FF00F80
1FC00300
3F800100
3F000000
7E000000
7C000000
FC000000
F8000000
F8000000
F8000000
F8000000
F8000000
FC000000
FC000000
7E000000
7E000000
3F800C00
3FC03E00
1FFFFF00
0FFFFF80
07FFFE00
01FFF800
003FC000
ENDCHAR

STARTCHAR Ccedilla
ENCODING 199
SWIDTH 780 0
DWIDTH 30 0
BBX 27 34 2 -6
BITMAP
000FF000
007FFE00
01FFFF80
03FFFFE0
07FFFFC0
0FF00F80
1FC00300
3F800100
3F000000
7E000000
7C000000
FC000000
F8000000
F8000000
F8000000
F8000000
F8000000
FC000000
FC000000
7E000000
7F000000
3F800400
3FE03E00
1FFFFF00
0FFFFF80
03FFFE00
00FFF800
001EC000
001F0000
00078000
00078000
00FF0000
01FF0000
007C0000
ENDCHAR

STARTCHAR Ccaron
ENCODING 200
SWIDTH 780 0
DWIDTH 30 0
BBX 27 34 2 0
BITMAP
007E3F00
003F7E00
001F7C00
000FF000
0007E000
00000000
000FE000
007FFE00
01FFFF00
03FFFFE0
07FFFFC0
0FF00F80
1FC00300
3F800100
3F000000
7E000000
7C000000
FC000000
F8000000
F8000000
F8000000
F8000000
F8000000
FC000000
FC000000
7E000000
7E000000
3F800C00
3FC03E00
1FFFFF00
0FFFFF80
07FFFE00
01FFF800
003FC000
ENDCHAR

STARTCHAR Eacute
ENCODING 201
SWIDTH 520 0
DWIDTH 20 0
BBX 19 37 1 0
BITMAP
000FE0
001F80
001F00
003E00
007C00
00F800
01E000
000000
000000
1FFFC0
1FFFC0
1FFFC0
1FFFC0
1FFFC0
1F0000
1F0000
1F0000
3F0000
3F0000
3E0000
3FFF80
3FFF80
3FFF80
3FFF80
3FFF00
7E0000
7C0000
7C0000
7C0000
7C0000
7C0000
7C0000
FFFE00
FFFE00
FFFE00
FFFE00
FFFE00
ENDCHAR

STARTCHAR Eogonek
ENCODING 202
SWIDTH 520 0
DWIDTH 20 0
BBX 19 35 1 -7
BITMAP
0FFFE0
0FFFC0
1FFFC0
1FFFC0
1FFFC0
1F0000
1F0000
1F0000
1F0000
1F0000
3F0000
3FFF80
3FFF80
3FFF80
3FFF80
3FFF80
3E0000
3E0000
7E0000
7C0000
7C0000
7C0000
7C0000
7FFF00
7FFF00
7FFE00
FFFE00
FFCE00
003800
007000
00E000
00E000
00FE00
00FC00
003C00
ENDCHAR

STARTCHAR Edieresis
ENCODING 203
SWIDTH 520 0
DWIDTH 20 0
BBX 19 34 1 0
BITMAP
078780
0F8F80
0F8F80
0F8F80
070700
000000
0FFFE0
0FFFC0
0FFFC0
0FFFC0
1FFFC0
1F0000
1F0000
1F0000
1F0000
1F0000
1F0000
1FFF80
3FFF80
3FFF80
3FFF80
3FFF80
3E0000
3E0000
3E0000
7E0000
7E0000
7C0000
7C0000
7FFF00
7FFF00
7FFE00
7FFE00
FFFE00
ENDCHAR

STARTCHAR Ecaron
ENCODING 204
SWIDTH 520 0
DWIDTH 20 0
BBX 19 35 1 0
BITMAP
0F87E0
0FCF80
07DF00
03FE00
01FC00
00F800
000000
1FFFC0
1FFFC0
1FFFC0
1FFFC0
1FFFC0
1F0000
1F0000
1F0000
3F0000
3F0000
3E0000
3FFF80
3FFF80
3FFF80
3FFF80
3FFF00
7E0000
7C0000
7C0000
7C0000
7C0000
7C0000
7C0000
FFFE00
FFFE00
FFFE00
FFFE00
FFFE00
ENDCHAR

STARTCHAR Iacute
ENCODING 205
SWIDTH 280 0
DWIDTH 11 0
BBX 14 37 1 0
BITMAP
01FC
01F0
03E0
07C0
0F80
0F00
3E00
0000
0000
0F80
0F80
1F00
1F00
1F00
1F00
1F00
1F00
1F00
3E00
3E00
3E00
3E00
3E00
3E00
3E00
3E00
7C00
7C00
7C00
7C00
7C00
7C00
7C00
7800
F800
F800
F800
ENDCHAR

STARTCHAR Icircumflex
ENCODING 206
SWIDTH 280 0
DWIDTH 11 0
BBX 16 34 -1 0
BITMAP
07F0
0FF8
1F7C
3E7C
FC3F
0000
03E0
03E0
07C0
07C0
07C0
07C0
07C0
07C0
07C0
0F80
0F80
0F80
0F80
0F80
0F80
0F80
0F80
1F00
1F00
1F00
1F00
1F00
1F00
1F00
1E00
3E00
3E00
3E00
ENDCHAR

STARTCHAR Dcaron
ENCODING 207
SWIDTH 700 0
DWIDTH 27 0
BBX 24 35 1 0
BITMAP
01F0FC
01F9F8
00FBE0
007FC0
003F80
001F00
000000
0FFE00
0FFF80
0FFFE0
1FFFF0
1FFFF8
1F03FC
1F00FC
1F007E
1F003E
1F003F
1F001F
3F001F
3F001F
3E001F
3E001F
3E001F
3E001F
3E003F
3E003E
7E007E
7C00FE
7C01FC
7C07F8
7FFFF8
7FFFF0
7FFFC0
FFFF80
FFFC00
ENDCHAR

STARTCHAR Dcroat
ENCODING 208
SWIDTH 742 0
DWIDTH 28 0
BBX 24 28 2 0
BITMAP
0FFE00
0FFF80
0FFFE0
0FFFF0
1FFFF8
1F07FC
1F00FC
1F007E
1F007E
1F003F
1F003F
1F001F
3F001F
FFF81F
FFF81F
FFF81F
3E001F
3E003F
3E003E
7E007E
7C007E
7C01FC
7C07F8
7FFFF8
7FFFF0
7FFFC0
7FFF80
FFFC00
ENDCHAR

STARTCHAR Nacute
ENCODING 209
SWIDTH 740 0
DWIDTH 28 0
BBX 26 37 1 0
BITMAP
0000FE00
0001F800
0001F000
0003E000
0007C000
000F8000
001E0000
00000000
00000000
0F8007C0
0F8007C0
0FC00FC0
1FC00F80
1FE00F80
1FE00F80
1FF00F80
1FF00F80
1FF80F80
1F780F80
1F7C1F00
3E7C1F00
3E3E1F00
3E3E1F00
3E1F1F00
3E1F9F00
3E0F9F00
3E0FDF00
3C07DE00
7C07FE00
7C03FE00
7C03FE00
7C01FE00
7C01FE00
7C00FE00
7C007C00
F8007C00
F8003C00
ENDCHAR

STARTCHAR Ncaron
ENCODING 210
SWIDTH 740 0
DWIDTH 28 0
BBX 26 34 1 0
BITMAP
01FCFE00
007DF000
003FE000
001FC000
000F8000
00000000
0F8007C0
0F8007C0
0FC00FC0
1FC00F80
1FE00F80
1FE00F80
1FF00F80
1FF00F80
1FF80F80
1F780F80
1F7C1F00
3E7C1F00
3E3E1F00
3E3E1F00
3E1F1F00
3E1F9F00
3E0F9F00
3E0FDF00
3C07DE00
7C07FE00
7C03FE00
7C03FE00
7C01FE00
7C01FE00
7C00FE00
7C007C00
F8007C00
F8003C00
ENDCHAR

STARTCHAR Oacute
ENCODING 211
SWIDTH 840 0
DWIDTH 32 0
BBX 29 36 1 0
BITMAP
00007F00
0000FC00
0000F800
0001F000
0003E000
0007C000
000F8000
00000000
000FF000
007FFC00
01FFFF00
03FFFF80
07FFFFC0
0FF01FE0
1FC007F0
3F8003F0
3F0001F8
7E0001F8
7C0000F8
7C0000F8
FC0000F8
F80000F8
F80000F8
F80000F8
F80001F8
F80001F0
FC0003F0
FC0007E0
7E000FE0
7F001FC0
3FC07F80
1FFFFF00
1FFFFE00
07FFFC00
03FFF000
007F0000
ENDCHAR

STARTCHAR Ocircumflex
ENCODING 212
SWIDTH 840 0
DWIDTH 32 0
BBX 29 34 1 0
BITMAP
0003E000
0007F000
000FF800
001F7C00
007E3F00
00000000
000FF000
007FFC00
01FFFF00
03FFFF80
07FFFFC0
0FF01FE0
1FC007F0
3F8003F0
3F0001F8
7E0001F8
7C0000F8
7C0000F8
FC0000F8
F80000F8
F80000F8
F80000F8
F80001F8
F80001F0
FC0003F0
FC0007E0
7E000FE0
7F001FC0
3FC07F80
1FFFFF00
1FFFFE00
07FFFC00
03FFF000
007F0000
ENDCHAR

STARTCHAR Ohungarumlaut
ENCODING 213
SWIDTH 840 0
DWIDTH 32 0
BBX 31 36 1 0
BITMAP
0000FCFE
0001F1F8
0003E3F0
0007C3E0
00078780
000F0F00
001E1E00
00000000
000FE000
007FFC00
01FFFF00
03FFFF80
07FFFFC0
0FF01FE0
1FC007F0
3F8003F0
3F0001F8
7E0001F8
7C0000F8
7C0000F8
FC0000F8
F80000F8
F80000F8
F80000F8
F80001F8
F80001F0
FC0003F0
FC0007E0
7E000FE0
7F001FC0
3FC07F80
1FFFFF00
1FFFFE00
07FFFC00
03FFF000
007F0000
ENDCHAR

STARTCHAR Odieresis
ENCODING 214
SWIDTH 840 0
DWIDTH 32 0
BBX 29 34 1 0
BITMAP
003C3C00
007C7C00
007C7C00
007C7C00
00787800
00000000
000FF000
007FFC00
01FFFF00
03FFFF80
07FFFFC0
0FF01FE0
1FC007F0
3F8003F0
3F0001F8
7E0001F8
7C0000F8
7C0000F8
FC0000F8
F80000F8
F80000F8
F80000F8
F80001F8
F80001F0
FC0003F0
FC0007E0
7E000FE0
7F001FC0
3FC07F80
1FFFFF00
1FFFFE00
07FFFC00
03FFF000
007F8000
ENDCHAR

STARTCHAR multiply
ENCODING 215
SWIDTH 600 0
DWIDTH 23 0
BBX 17 17 3 5
BITMAP
200600
700F00
F81F80
7C3F00
3E7E00
1F7C00
0FF800
07F000
03E000
0FF000
1FF800
3F7C00
7E3E00
FC1F00
F80F80
700700
200200
ENDCHAR

STARTCHAR Rcaron
ENCODING 216
SWIDTH 580 0
DWIDTH 22 0
BBX 19 34 2 0
BITMAP
0FCFE0
03EF80
01FE00
01FC00
00F800
000000
0FF800
1FFF00
1FFF80
1FFFC0
1FFFE0
1F07E0
1F03E0
1F03E0
3F03E0
3E07E0
3E1FC0
3FFFC0
3FFF80
3FFF00
3FFC00
3EF800
7CF800
7CF800
7C7C00
7C7C00
7C7E00
7C3E00
7C3F00
FC1F00
F81F80
F80F80
F80FC0
F807C0
ENDCHAR

STARTCHAR Uring
ENCODING 217
SWIDTH 640 0
DWIDTH 24 0
BBX 22 39 2 0
BITMAP
001C00
007F00
007F00
00E380
00E380
00E380
007F00
007F00
001C00
000000
000000
3F00FC
3F00F8
3E00F8
3E00F8
3E00F8
3E00F8
3E00F8
7E01F8
7E01F8
7C01F0
7C01F0
7C01F0
7C01F0
7C01F0
7C03F0
FC03F0
F803E0
F803E0
F803E0
F803E0
F807E0
FC07C0
FC0FC0
7FFFC0
7FFF80
3FFF00
0FFE00
03F000
ENDCHAR

STARTCHAR Uacute
ENCODING 218
SWIDTH 640 0
DWIDTH 24 0
BBX 21 37 2 0
BITMAP
0007F0
0007C0
000F80
001F00
003E00
003C00
00F800
000000
000000
3F00F8
3E00F8
3E01F8
3E01F8
3E01F0
3E01F0
3E01F0
7E01F0
7C01F0
7C01F0
7C03F0
7C03E0
7C03E0
7C03E0
7C03E0
FC03E0
F803E0
F807E0
F807E0
F807C0
F807C0
F80FC0
FC1F80
7FFF80
7FFF00
3FFF00
1FFC00
03E000
ENDCHAR

STARTCHAR Uhungarumlaut
ENCODING 219
SWIDTH 640 0
DWIDTH 24 0
BBX 26 37 2 0
BITMAP
000FCFC0
001F1F80
003E3F00
007C3E00
00787800
00F0F000
01E1E000
00000000
00000000
3F00F800
3E00F800
3E01F800
3E01F800
3E01F000
3E01F000
3E01F000
7E01F000
7C01F000
7C01F000
7C03F000
7C03E000
7C03E000
7C03E000
7C03E000
FC03E000
F803E000
F807E000
F807E000
F807C000
F807C000
F80FC000
FC1F8000
7FFF8000
7FFF0000
3FFF0000
1FFC0000
03E00000
ENDCHAR

STARTCHAR Udieresis
ENCODING 220
SWIDTH 640 0
DWIDTH 24 0
BBX 21 34 2 0
BITMAP
03C3C0
07C7C0
07C7C0
07C7C0
038380
000000
3F00F8
3E00F8
3E01F8
3E01F0
3E01F0
3E01F0
3E01F0
7E01F0
7C01F0
7C03F0
7C03F0
7C03E0
7C03E0
7C03E0
7C03E0
FC03E0
F807E0
F807E0
F807C0
F807C0
F807C0
F80FC0
FC1F80
7FFF80
7FFF00
3FFE00
1FFC00
03E000
ENDCHAR

STARTCHAR Yacute
ENCODING 221
SWIDTH 620 0
DWIDTH 24 0
BBX 23 37 1 0
BITMAP
0001F8
0003E0
0007C0
000F80
000F00
001E00
003C00
000000
000000
FC007E
7C00FC
7C00FC
7E01F8
3E03F0
3F03F0
1F07E0
1F0FC0
1F8F80
0F9F80
0FBF00
07FE00
07FE00
07FC00
03F800
03F800
01F000
03F000
03E000
03E000
03E000
03E000
03E000
03E000
03E000
07E000
07C000
07C000
ENDCHAR

STARTCHAR Tcommaaccent
ENCODING 222
SWIDTH 420 0
DWIDTH 16 0
BBX 17 36 1 -8
BITMAP
FFFF80
FFFF80
FFFF80
FFFF80
FFFF80
03E000
07E000
07C000
07C000
07C000
07C000
07C000
07C000
07C000
0FC000
0F8000
0F8000
0F8000
0F8000
0F8000
0F8000
1F8000
1F0000
1F0000
1F0000
1F0000
1F0000
1F0000
000000
000000
1E0000
1E0000
1C0000
0C0000
180000
080000
ENDCHAR

STARTCHAR germandbls
ENCODING 223
SWIDTH 600 0
DWIDTH 23 0
BBX 20 29 1 0
BITMAP
003E00
01FF80
03FFC0
07FFE0
0FFFF0
0FC3F0
1F81F0
1F01F0
1F01F0
3E03E0
3E0FE0
3E7FC0
3E7F80
3E7E00
3E7F00
7E0F80
7C07C0
7C03E0
7C03E0
7C03E0
7C03E0
7C03E0
7C07E0
F80FC0
F9FFC0
FBFF80
FBFF00
FBFE00
F9F000
ENDCHAR

STARTCHAR racute
ENCODING 224
SWIDTH 320 0
DWIDTH 12 0
BBX 16 31 0 0
BITMAP
007F
00FC
01F8
01F0
03C0
0780
0F00
0000
0000
0000
3E78
3EF0
3DF0
3FE0
3FE0
3F00
3E00
7E00
7E00
7C00
7C00
7C00
7C00
7C00
F800
F800
F800
F800
F800
F800
F800
ENDCHAR

STARTCHAR aacute
ENCODING 225
SWIDTH 660 0
DWIDTH 25 0
BBX 22 31 1 0
BITMAP
0003F8
0007E0
000FC0
000F80
001F00
003C00
007800
000000
000000
000000
00787C
03FE7C
0FFF7C
1FFFBC
1FFFFC
3F03FC
7E01F8
7C00F8
FC00F8
F800F8
F800F8
F800F8
F800F8
F801F8
7C01F0
7E03F0
7F0FF0
3FFFF0
1FFEF0
0FFDF0
03F1F0
ENDCHAR

STARTCHAR acircumflex
ENCODING 226
SWIDTH 660 0
DWIDTH 25 0
BBX 22 29 1 0
BITMAP
001F00
003F80
007F80
00FBC0
03F3E0
07E1F0
000000
000000
00787C
03FE7C
0FFF7C
1FFFBC
1FFFFC
3F03FC
7E01F8
7C00F8
FC00F8
F800F8
F800F8
F800F8
F800F8
F801F8
7C01F0
7E03F0
7F0FF0
3FFFF0
1FFEF0
0FFDF0
03F1F0
ENDCHAR

STARTCHAR abreve
ENCODING 227
SWIDTH 660 0
DWIDTH 25 0
BBX 22 29 1 0
BITMAP
07C1F0
03FFF0
03FFE0
01FFC0
007E00
000000
000000
000000
00F87C
03FE7C
0FFF7C
1FFFFC
3FFFFC
3F03FC
7E01F8
7C00F8
FC00F8
F800F8
F800F8
F800F8
F800F8
F801F8
7C01F0
7E03F0
7F0FF0
3FFFF0
1FFEF0
0FFDF0
03F1F0
ENDCHAR

STARTCHAR adieresis
ENCODING 228
SWIDTH 660 0
DWIDTH 25 0
BBX 23 29 1 0
BITMAP
01C1E0
03E3E0
03E3E0
03E3E0
03C1C0
000000
000000
000000
00783E
03FE7C
07FF7C
1FFFFC
1FFFFC
3F81FC
7E00FC
7C00FC
FC00F8
F80078
F80078
F800F8
F800F8
FC00F8
7C01F8
7E03F8
7F8FF0
3FFFF0
1FFEF0
0FFDF0
03F9F0
ENDCHAR

STARTCHAR lacute
ENCODING 229
SWIDTH 240 0
DWIDTH 9 0
BBX 15 37 0 0
BITMAP
00FE
01F8
01F0
03E0
07C0
0F80
1F00
0000
0000
0F80
0F80
0F80
0F00
1F00
1F00
1F00
1F00
1F00
1F00
1F00
3E00
3E00
3E00
3E00
3E00
3E00
3E00
3C00
7C00
7C00
7C00
7C00
7C00
7C00
7C00
F800
F800
ENDCHAR

STARTCHAR cacute
ENCODING 230
SWIDTH 640 0
DWIDTH 24 0
BBX 21 31 1 0
BITMAP
0007F0
0007C0
000F80
001F00
003E00
003C00
00F800
000000
000000
000000
007E00
03FFC0
07FFE0
1FFFF0
1FFFF8
3F81F0
7E00C0
7C0000
FC0000
F80000
F80000
F80000
F80000
F80000
7C0180
7E03C0
7FFFF0
3FFFE0
1FFFC0
07FF00
00F800
ENDCHAR

STARTCHAR ccedilla
ENCODING 231
SWIDTH 640 0
DWIDTH 24 0
BBX 21 27 1 -6
BITMAP
007E00
03FFC0
07FFE0
1FFFF0
1FFFF8
3F81F0
7E0040
7C0000
FC0000
F80000
F80000
F80000
F80000
F80000
7C0080
7E03C0
7FFFF0
3FFFE0
1FFFC0
07FF00
00F800
007C00
001E00
001E00
03FC00
07FC00
01F000
ENDCHAR

STARTCHAR ccaron
ENCODING 232
SWIDTH 640 0
DWIDTH 24 0
BBX 21 29 1 0
BITMAP
07E3F0
03E7E0
01F780
00FF00
007E00
003C00
000000
000000
007E00
03FFC0
07FFE0
1FFFF0
1FFFF8
3F81F0
7E00C0
7C0000
FC0000
F80000
F80000
F80000
F80000
F80000
7C0180
7E03C0
7FFFF0
3FFFE0
1FFFC0
07FF00
00F800
ENDCHAR

STARTCHAR eacute
ENCODING 233
SWIDTH 640 0
DWIDTH 24 0
BBX 21 31 1 0
BITMAP
0007F0
0007C0
000F80
001F00
003E00
003C00
007800
000000
000000
000000
007C00
03FF80
0FFFC0
1FFFE0
3FFFF0
3F03F0
7E01F8
7C00F8
FFFFF8
FFFFF8
FFFFF8
FFFFF8
F80000
F80000
7C0100
7E0780
7FFFE0
3FFFC0
1FFF80
07FF00
01F800
ENDCHAR

STARTCHAR eogonek
ENCODING 234
SWIDTH 640 0
DWIDTH 24 0
BBX 21 28 1 -7
BITMAP
007C00
03FF00
0FFFC0
1FFFE0
3FFFF0
7F03F0
7E01F8
F800F8
FFFFF8
FFFFF8
FFFFF8
FFFFF8
F80000
F80000
F80100
FE0780
7FFFE0
3FFFC0
1FFF80
0FFF00
037800
00E000
01C000
038000
03C000
03F800
03F000
00F000
ENDCHAR

STARTCHAR edieresis
ENCODING 235
SWIDTH 640 0
DWIDTH 24 0
BBX 21 29 1 0
BITMAP
03C3C0
07C7C0
07C7C0
07C7C0
078380
000000
000000
000000
007C00
03FF00
0FFFC0
1FFFE0
3FFFE0
3F03F0
7E01F0
7C00F8
7FFFF8
FFFFF8
FFFFF8
FFFFF8
F80000
F80000
7C0100
7E0780
7FFFE0
3FFFC0
1FFF80
07FF00
01F800
ENDCHAR

STARTCHAR ecaron
ENCODING 236
SWIDTH 640 0
DWIDTH 24 0
BBX 21 29 1 0
BITMAP
07C3F0
03E7E0
01F780
00FF00
007E00
003C00
000000
000000
007C00
03FF80
0FFFC0
1FFFE0
3FFFF0
3F03F0
7E01F8
7C00F8
FFFFF8
FFFFF8
FFFFF8
FFFFF8
F80000
F80000
7C0100
7E0780
7FFFE0
3FFFC0
1FFF80
07FF00
01F800
ENDCHAR

STARTCHAR iacute
ENCODING 237
SWIDTH 240 0
DWIDTH 9 0
BBX 13 32 0 0
BITMAP
01F8
03F0
03E0
07C0
0F80
1F00
3E00
0000
0000
0000
0000
1F00
1F00
1F00
3E00
3E00
3E00
3E00
3E00
3E00
3E00
3C00
7C00
7C00
7C00
7C00
7C00
7C00
7C00
F800
F800
F800
ENDCHAR

STARTCHAR icircumflex
ENCODING 238
SWIDTH 240 0
DWIDTH 9 0
BBX 15 29 -2 0
BITMAP
07E0
0FF0
1FF8
3E7C
FC7E
0000
0000
0000
07C0
07C0
07C0
0F80
0F80
0F80
0F80
0F80
0F80
0F80
0F00
1F00
1F00
1F00
1F00
1F00
1F00
1F00
3E00
3E00
3E00
ENDCHAR

STARTCHAR dcaron
ENCODING 239
SWIDTH 707 0
DWIDTH 27 0
BBX 29 28 1 0
BITMAP
00003E78
00003EF0
00003EF0
00003EB0
00003E70
00003E60
00007CE0
00F87CC0
03FE7C40
0FFF7C00
1FFFBC00
3FFFFC00
3F03FC00
7E01F800
7C00F800
FC00F800
F800F800
F800F800
F800F800
F800F800
F801F800
7C01F000
7E03F000
7F0FF000
3FFFF000
1FFEF000
0FFDF000
03F1F000
ENDCHAR

STARTCHAR dcroat
ENCODING 240
SWIDTH 660 0
DWIDTH 25 0
BBX 26 28 1 0
BITMAP
00003E00
00003E00
000FFFC0
001FFFC0
001FFFC0
00003E00
00007C00
00F87C00
03FE7C00
0FFF7C00
1FFFBC00
1FFFFC00
3F03FC00
7E01F800
7C00F800
FC00F800
F800F800
F800F800
F800F800
F800F800
F801F800
7C01F000
7E03F000
7F0FF000
3FFFF000
1FFEF000
0FFDF000
03F1F000
ENDCHAR

STARTCHAR nacute
ENCODING 241
SWIDTH 600 0
DWIDTH 23 0
BBX 19 31 1 0
BITMAP
000FE0
000F80
001F00
003E00
007C00
007800
01F000
000000
000000
000000
3E1E00
3E7F80
3EFFC0
3FFFE0
3FFFE0
3F87E0
3F03E0
3E03E0
7E03E0
7C03E0
7C03E0
7C03C0
7C07C0
7C07C0
7C07C0
F807C0
F807C0
F807C0
F807C0
F80F80
F80F80
ENDCHAR

STARTCHAR ncaron
ENCODING 242
SWIDTH 600 0
DWIDTH 23 0
BBX 19 29 1 0
BITMAP
0F87E0
07CFC0
03EF00
01FE00
01FC00
00F800
000000
000000
3E1E00
3E7F80
3EFFC0
3FFFE0
3FFFE0
3F87E0
3F03E0
3E03E0
7E03E0
7C03E0
7C03E0
7C03C0
7C07C0
7C07C0
7C07C0
F807C0
F807C0
F807C0
F807C0
F80F80
F80F80
ENDCHAR

STARTCHAR oacute
ENCODING 243
SWIDTH 640 0
DWIDTH 24 0
BBX 21 31 1 0
BITMAP
0007F0
0007C0
000F80
001F00
003E00
003C00
007800
000000
000000
000000
007C00
03FF80
07FFC0
1FFFE0
1FFFF0
3F03F0
7E01F8
7C00F8
FC00F8
F800F8
F800F8
F800F8
F801F8
F801F0
FC03F0
7E07E0
7FFFE0
3FFFC0
1FFF00
0FFE00
01F000
ENDCHAR

STARTCHAR ocircumflex
ENCODING 244
SWIDTH 640 0
DWIDTH 24 0
BBX 21 29 1 0
BITMAP
001E00
007F00
00FF80
01F7C0
03E7E0
07C3F0
000000
000000
007C00
03FF80
07FFC0
1FFFE0
1FFFF0
3F03F0
7E01F8
7C00F8
FC00F8
F800F8
F800F8
F800F8
F801F8
F801F0
FC03F0
7E07E0
7FFFE0
3FFFC0
1FFF00
0FFE00
01F000
ENDCHAR

STARTCHAR ohungarumlaut
ENCODING 245
SWIDTH 640 0
DWIDTH 24 0
BBX 26 31 1 0
BITMAP
000FCFC0
001F1F80
003E3E00
007C3C00
00787800
00F0F000
01E1E000
00000000
00000000
00000000
007C0000
03FF8000
07FFC000
1FFFE000
1FFFF000
3F03F000
7E01F800
7C00F800
FC00F800
F800F800
F800F800
F800F800
F801F800
F801F000
FC03F000
7E07E000
7FFFE000
3FFFC000
1FFF0000
0FFE0000
01F00000
ENDCHAR

STARTCHAR odieresis
ENCODING 246
SWIDTH 640 0
DWIDTH 24 0
BBX 21 29 1 0
BITMAP
03C3C0
07C7C0
07C7C0
07C7C0
078780
000000
000000
000000
007C00
03FF80
07FFC0
1FFFE0
1FFFF0
3F03F0
7E01F8
7C00F8
FC00F8
F800F8
F800F8
F800F8
F801F8
F801F0
FC03F0
7E07E0
7FFFE0
3FFFC0
1FFF00
0FFE00
01F000
ENDCHAR

STARTCHAR divide
ENCODING 247
SWIDTH 600 0
DWIDTH 23 0
BBX 18 22 2 3
BITMAP
03F000
03F000
03F000
03F000
03F000
03F000
000000
000000
000000
FFFFC0
FFFFC0
FFFFC0
FFFFC0
FFFFC0
000000
000000
03F000
03F000
03F000
03F000
03F000
03F000
ENDCHAR

STARTCHAR rcaron
ENCODING 248
SWIDTH 320 0
DWIDTH 12 0
BBX 16 29 0 0
BITMAP
FC3F
7E7C
3F78
1FF0
0FE0
0780
0000
0000
3E78
3EF0
3DF0
3FE0
3FE0
3F00
3E00
7E00
7E00
7C00
7C00
7C00
7C00
7C00
F800
F800
F800
F800
F800
F800
F800
ENDCHAR

STARTCHAR uring
ENCODING 249
SWIDTH 600 0
DWIDTH 23 0
BBX 20 33 2 0
BITMAP
003800
00FE00
00FE00
01C700
01C700
01C700
00FE00
00FE00
003800
000000
000000
000000
3E01F0
7E01E0
7C03E0
7C03E0
7C03E0
7C03E0
7C03E0
7C03E0
FC03E0
F807C0
F807C0
F807C0
F807C0
F807C0
F80F80
FC1F80
7FFF80
7FFF00
3FFE00
1FFC00
03E000
ENDCHAR

STARTCHAR uacute
ENCODING 250
SWIDTH 600 0
DWIDTH 23 0
BBX 19 32 2 0
BITMAP
0007E0
000FC0
001F00
003E00
003C00
007800
00F000
000000
000000
000000
000000
3E03E0
7C03E0
7C03E0
7C03E0
7C07C0
7C07C0
7C07C0
7C07C0
F807C0
F807C0
F807C0
F80F80
F80F80
F80F80
F81F80
FC1F00
7FFF00
7FFE00
3FFC00
1FF800
03E000
ENDCHAR

STARTCHAR uhungarumlaut
ENCODING 251
SWIDTH 600 0
DWIDTH 23 0
BBX 25 32 2 0
BITMAP
001F9F80
003E3F00
007C7E00
00F87C00
00F0F800
01E1E000
03C3C000
00000000
00000000
00000000
00000000
3E03E000
7C03E000
7C03E000
7C03E000
7C07C000
7C07C000
7C07C000
7C07C000
F807C000
F807C000
F807C000
F80F8000
F80F8000
F80F8000
F81F8000
FC1F0000
7FFF0000
7FFE0000
3FFC0000
1FF80000
03E00000
ENDCHAR

STARTCHAR udieresis
ENCODING 252
SWIDTH 600 0
DWIDTH 23 0
BBX 19 29 2 0
BITMAP
078780
0F8F80
0F8F80
0F8F80
0F0700
000000
000000
000000
3C03E0
7C03E0
7C03E0
7C03C0
7C07C0
7C07C0
7C07C0
7C07C0
F807C0
F807C0
F807C0
F80F80
F80F80
F80F80
F81F80
FC3F00
7FFF00
7FFE00
3FFC00
1FF800
03E000
ENDCHAR

STARTCHAR yacute
ENCODING 253
SWIDTH 580 0
DWIDTH 22 0
BBX 21 39 1 -7
BITMAP
0007F0
0007C0
000F80
001F00
003E00
003C00
00F800
000000
000000
000000
000000
F801F8
F801F0
7C03F0
7C03E0
7C07C0
3C0FC0
3E0F80
3E1F80
1E1F00
1F3F00
1F3E00
0F7C00
0FFC00
0FF800
0FF800
07F000
07F000
07E000
07C000
0FC000
0F8000
1F8000
1F0000
3F0000
3E0000
7C0000
FC0000
F80000
ENDCHAR

STARTCHAR tcommaaccent
ENCODING 254
SWIDTH 300 0
DWIDTH 11 0
BBX 11 37 1 -8
BITMAP
0F80
1F00
1F00
1F00
1F00
1F00
1F00
1F00
FFE0
FFC0
FFC0
FFC0
3E00
3E00
3E00
3E00
7C00
7C00
7C00
7C00
7C00
7C00
7C00
7800
F800
F800
F800
F800
F800
0000
0000
F000
F000
E000
6000
C000
4000
ENDCHAR

STARTCHAR dotaccent
ENCODING 255
SWIDTH 280 0
DWIDTH 11 0
BBX 5 5 4 23
BITMAP
78
F8
F8
F8
F0
ENDCHAR
ENDFONT
